<svg width="28" height="28" viewBox="0 0 28 28" fill="none" xmlns="http://www.w3.org/2000/svg">
<path d="M25.6673 7.87467C26.1506 7.87467 26.5423 7.48292 26.5423 6.99967C26.5423 6.51643 26.1506 6.12467 25.6673 6.12467V7.87467ZM16.334 6.12467C15.8507 6.12467 15.459 6.51643 15.459 6.99967C15.459 7.48292 15.8507 7.87467 16.334 7.87467V6.12467ZM21.8757 2.33301C21.8757 1.84976 21.4839 1.45801 21.0007 1.45801C20.5174 1.45801 20.1257 1.84976 20.1257 2.33301H21.8757ZM20.1257 11.6663C20.1257 12.1496 20.5174 12.5413 21.0007 12.5413C21.4839 12.5413 21.8757 12.1496 21.8757 11.6663H20.1257ZM25.6673 6.99967V6.12467H21.0007V6.99967V7.87467H25.6673V6.99967ZM21.0007 6.99967V6.12467H16.334V6.99967V7.87467H21.0007V6.99967ZM21.0007 2.33301H20.1257V6.99967H21.0007H21.8757V2.33301H21.0007ZM21.0007 6.99967H20.1257V11.6663H21.0007H21.8757V6.99967H21.0007Z" fill="#878A93" fill-opacity="0.52"/>
<path d="M13.4173 3.5C8.19259 3.5 5.58022 3.5 3.9571 5.12312C2.33398 6.74623 2.33398 9.3586 2.33398 14.5833C2.33398 19.8081 2.33398 22.4204 3.9571 24.0436C5.58022 25.6667 8.19259 25.6667 13.4173 25.6667C18.6421 25.6667 21.2544 25.6667 22.8775 24.0436C24.5007 22.4204 24.5007 19.8081 24.5007 14.5833V14" stroke="#878A93" stroke-opacity="0.52" stroke-width="1.75" stroke-linecap="round"/>
<path d="M2.33398 16.491C3.05617 16.3861 3.7863 16.3343 4.51765 16.3361C7.61158 16.2707 10.6297 17.2348 13.0336 19.0562C15.263 20.7455 16.8295 23.0704 17.5007 25.6663" stroke="#878A93" stroke-opacity="0.52" stroke-width="1.75" stroke-linejoin="round"/>
<path d="M24.5 19.7126C23.1286 19.018 21.7102 18.6656 20.2839 18.6671C18.1236 18.6585 15.9851 19.4526 14 21.0003" stroke="#878A93" stroke-opacity="0.52" stroke-width="1.75" stroke-linejoin="round"/>
</svg>
