<svg width="165" height="152" viewBox="0 0 165 152" fill="none" xmlns="http://www.w3.org/2000/svg">
<circle cx="81.3357" cy="82.7135" r="68.4127" fill="#F1F3FF"/>
<circle cx="17.2109" cy="36.5204" r="4.28797" fill="#F1F3FF"/>
<circle cx="130.063" cy="8.64845" r="7.99122" fill="#F1F3FF"/>
<circle cx="18.5713" cy="126.764" r="7.60141" fill="#F1F3FF"/>
<circle cx="154.618" cy="119.356" r="7.60141" fill="#F1F3FF"/>
<circle cx="139.798" cy="127.933" r="3.70325" fill="#F1F3FF"/>
<path d="M158.191 95.9014L159.385 101.541L164.944 102.752L159.385 103.963L158.191 109.603L156.998 103.963L151.439 102.752L156.998 101.541L158.191 95.9014Z" fill="white"/>
<path d="M151.044 38.3222C151.132 37.9101 151.72 37.9101 151.807 38.3222L152.567 41.9136C152.599 42.0636 152.716 42.1811 152.866 42.2138L156.43 42.9903C156.839 43.0794 156.839 43.6629 156.43 43.752L152.866 44.5286C152.716 44.5612 152.599 44.6787 152.567 44.8287L151.807 48.4201C151.72 48.8322 151.132 48.8322 151.044 48.4201L150.284 44.8287C150.252 44.6787 150.136 44.5612 149.986 44.5286L146.421 43.752C146.012 43.6629 146.012 43.0794 146.421 42.9903L149.986 42.2138C150.136 42.1811 150.252 42.0636 150.284 41.9136L151.044 38.3222Z" fill="#C4CBF5"/>
<path d="M9.49826 85.4892C9.58549 85.0771 10.1738 85.0771 10.261 85.4892L11.5641 91.6454C11.5958 91.7954 11.7126 91.9129 11.8625 91.9456L17.9551 93.2728C18.3642 93.362 18.3642 93.9455 17.9551 94.0346L11.8625 95.3619C11.7126 95.3945 11.5958 95.512 11.5641 95.662L10.261 101.818C10.1738 102.23 9.58549 102.23 9.49826 101.818L8.19518 95.662C8.16342 95.512 8.04664 95.3945 7.89679 95.3619L1.80416 94.0346C1.39504 93.9455 1.39504 93.362 1.80416 93.2728L7.89679 91.9456C8.04664 91.9129 8.16342 91.7954 8.19518 91.6454L9.49826 85.4892Z" fill="#C4CBF5"/>
<path d="M33.7824 19.9677C33.5564 19.9197 33.5564 19.5971 33.7824 19.5491L37.1994 18.8224C37.2817 18.8049 37.3462 18.7407 37.364 18.6584L38.0997 15.2655C38.1485 15.0406 38.4693 15.0406 38.5181 15.2655L39.2538 18.6584C39.2716 18.7407 39.3361 18.8049 39.4184 18.8224L42.8354 19.5491C43.0614 19.5971 43.0614 19.9197 42.8354 19.9677L39.4184 20.6944C39.3361 20.7119 39.2716 20.7761 39.2538 20.8583L38.5181 24.2513C38.4693 24.4762 38.1485 24.4762 38.0997 24.2513L37.364 20.8583C37.3462 20.7761 37.2817 20.7119 37.1994 20.6944L33.7824 19.9677Z" fill="#C4CBF5"/>
<circle cx="95.5737" cy="57.5697" r="43.2696" fill="#DDE2FF" stroke="#C4CBF5" stroke-width="1.55926"/>
<circle cx="95.5727" cy="57.5686" r="36.2529" fill="#F1F3FF" stroke="#DBE0FF" stroke-width="1.55926"/>
<path d="M39.1495 137.726L62.5355 105.246L63.5749 104.466L65.9135 103.946H69.2915L71.1104 105.246L72.9293 106.025L74.4884 107.844L75.7876 110.702L55.5197 148.899L53.1811 150.199H50.3229L46.4252 148.899L43.3071 147.6L40.4488 143.702L39.1495 142.143V137.726Z" fill="#DDE2FF"/>
<path d="M80.2033 98.2295L74.2745 107.844" stroke="#C4CBF5" stroke-width="1.55926"/>
<path d="M73.2255 95.1113L67.5089 103.686" stroke="#C4CBF5" stroke-width="1.55926"/>
<path d="M64.0967 103.946L38.8917 138.506" stroke="#C4CBF5" stroke-width="1.55926"/>
<path d="M75.5224 110.183L55.2545 149.42" stroke="#C4CBF5" stroke-width="1.55926"/>
<path d="M63.5714 104.466L63.9992 104.228C64.9349 103.707 66.0102 103.492 67.0744 103.612V103.612C67.509 103.662 67.9355 103.766 68.3435 103.924L69.0758 104.206L69.3227 104.289C70.6983 104.747 71.9482 105.52 72.9735 106.545V106.545L73.7794 107.351C74.1071 107.678 74.3933 108.045 74.6317 108.442V108.442C74.9106 108.907 75.1214 109.41 75.2576 109.935L75.5242 110.962" stroke="#C4CBF5" stroke-width="1.55926"/>
<path d="M55.7769 148.899L54.6702 149.397C53.5981 149.879 52.4418 150.146 51.2669 150.183V150.183C50.3544 150.212 49.4428 150.101 48.5636 149.855L47.8182 149.647L47.5682 149.562C45.3591 148.812 43.3474 147.575 41.6823 145.941V145.941L40.7198 144.996C39.9672 144.258 39.4031 143.349 39.0752 142.347V142.347C38.6672 141.1 38.6413 139.76 39.0007 138.499L39.1469 137.986" stroke="#C4CBF5" stroke-width="1.55926"/>
</svg>
