<svg width="28" height="28" viewBox="0 0 28 28" fill="none" xmlns="http://www.w3.org/2000/svg">
<path d="M20.9984 9.80078V12.6008C20.9984 14.086 20.4084 15.5104 19.3582 16.5606C18.308 17.6108 16.8836 18.2008 15.3984 18.2008H13.7576L11.2852 20.6746C11.6772 20.8832 12.1238 21.0008 12.5984 21.0008H15.3984L19.5984 25.2008V21.0008H22.3984C23.141 21.0008 23.8532 20.7058 24.3783 20.1807C24.9034 19.6556 25.1984 18.9434 25.1984 18.2008V12.6008C25.1984 11.8582 24.9034 11.146 24.3783 10.6209C23.8532 10.0958 23.141 9.80078 22.3984 9.80078H20.9984Z" fill="#1746A2"/>
<path d="M2.80078 6.99922C2.80078 6.25661 3.09578 5.54442 3.62088 5.01932C4.14598 4.49422 4.85818 4.19922 5.60078 4.19922H15.4008C16.1434 4.19922 16.8556 4.49422 17.3807 5.01932C17.9058 5.54442 18.2008 6.25661 18.2008 6.99922V12.5992C18.2008 13.3418 17.9058 14.054 17.3807 14.5791C16.8556 15.1042 16.1434 15.3992 15.4008 15.3992H12.6008L8.40078 19.5992V15.3992H5.60078C4.85818 15.3992 4.14598 15.1042 3.62088 14.5791C3.09578 14.054 2.80078 13.3418 2.80078 12.5992V6.99922Z" fill="#317BFF"/>
</svg>
