<svg width="21" height="21" viewBox="0 0 21 21" fill="none" xmlns="http://www.w3.org/2000/svg">
<g clip-path="url(#clip0_1169_46719)">
<path d="M17.61 10.5938H16.7252H10.532H4.33881H3.45409C3.17923 10.5938 2.93368 10.7191 2.77136 10.9157C2.6992 11.0031 2.64354 11.1045 2.6091 11.2154C2.58325 11.2985 2.56934 11.3868 2.56934 11.4784V19.1462C2.56934 19.6348 2.96547 20.031 3.45409 20.031H10.5321H17.61C18.0986 20.031 18.4948 19.6348 18.4948 19.1462V11.4785C18.4947 10.9899 18.0986 10.5938 17.61 10.5938Z" fill="#FFD38B"/>
<path d="M2.56934 11.4782C2.56934 10.9896 2.96547 10.5935 3.45409 10.5935H4.33885H10.5321H16.7253H17.61C18.0986 10.5935 18.4948 10.9896 18.4948 11.4782V7.37202C18.4826 7.85 18.0921 8.23393 17.6112 8.23393C17.6108 8.23393 17.6104 8.23393 17.61 8.23393H16.7253H11.7117C11.2231 8.23393 10.8269 7.8378 10.8269 7.34917V2.33588V1.45116C10.8269 1.09339 11.0425 0.770744 11.3731 0.633771C11.4869 0.586631 11.6065 0.565304 11.7249 0.567129C11.7205 0.567015 11.7161 0.566406 11.7117 0.566406H3.45409C2.96547 0.566406 2.56934 0.962537 2.56934 1.45116V11.4782Z" fill="#E4E9F1"/>
<path d="M10.8281 1.45055V2.3353V7.34863C10.8281 7.83726 11.2243 8.23339 11.7129 8.23339H16.7264H17.6112C17.6116 8.23339 17.612 8.23339 17.6124 8.23339C18.0933 8.23339 18.4837 7.84942 18.4959 7.37148C18.4961 7.3638 18.4971 7.35639 18.4971 7.34867C18.4971 7.16539 18.4406 6.99565 18.3451 6.85434C18.345 6.85423 18.3449 6.854 18.3448 6.85389C18.3297 6.83153 18.3135 6.81005 18.2965 6.78926C18.2951 6.78755 18.2938 6.78576 18.2923 6.78405C18.2762 6.76459 18.2591 6.746 18.2414 6.72809C18.2387 6.72528 18.236 6.72243 18.2332 6.71965C18.2254 6.71205 18.2182 6.70372 18.2102 6.69635L12.3386 0.825139C12.3384 0.824835 12.338 0.824531 12.3378 0.824303C12.3197 0.806321 12.3008 0.789328 12.2813 0.773057C12.2753 0.767924 12.269 0.763134 12.2629 0.758268C12.2486 0.747015 12.2341 0.736105 12.2193 0.72565C12.212 0.720518 12.2047 0.7155 12.1972 0.710596C12.1816 0.700407 12.1656 0.690789 12.1494 0.681589C12.143 0.677864 12.1367 0.673986 12.1303 0.670451C12.1089 0.659008 12.087 0.648515 12.0646 0.638821C12.0556 0.634943 12.0465 0.63156 12.0374 0.627986C12.0226 0.622132 12.0077 0.616657 11.9925 0.611601C11.9822 0.60818 11.9719 0.604872 11.9616 0.601869C11.9446 0.596851 11.9272 0.592555 11.9097 0.588487C11.902 0.586777 11.8945 0.584648 11.8868 0.583051C11.8622 0.578147 11.8371 0.574383 11.8119 0.571684C11.8042 0.570734 11.7964 0.570315 11.7887 0.569631C11.768 0.56792 11.7472 0.566818 11.7261 0.566514C11.6077 0.564689 11.4881 0.586054 11.3743 0.633156C11.0437 0.770091 10.8281 1.09274 10.8281 1.45055Z" fill="#CDD3DA"/>
<path d="M12.3405 0.825663L12.3389 0.824219L12.3407 0.826088L12.3405 0.825663Z" fill="#ADB5BD"/>
<path d="M8.19909 14.4727H7.95312V15.0613H8.19909C8.3542 15.0613 8.43825 15.0174 8.43825 14.7854V14.7453C8.43829 14.516 8.35424 14.4727 8.19909 14.4727Z" fill="#F4A118"/>
<path d="M10.5333 14.4727H10.3096V16.0385H10.5333V14.4727Z" fill="#F4A118"/>
<path d="M10.5321 16.7136C10.5326 16.6849 10.5326 16.5569 10.5326 16.3808V14.556C10.5326 14.3787 10.5326 13.9477 10.5321 13.796V10.5928H4.33881H3.45409C2.96547 10.5928 2.56934 10.9889 2.56934 11.4775V19.1453C2.56934 19.6339 2.96547 20.0301 3.45409 20.0301H10.5321V16.7136Z" fill="#F4A118"/>
</g>
<defs>
<clipPath id="clip0_1169_46719">
<rect width="19.4644" height="19.4644" fill="white" transform="translate(0.798828 0.566406)"/>
</clipPath>
</defs>
</svg>
