<svg width="15" height="16" viewBox="0 0 15 16" fill="none" xmlns="http://www.w3.org/2000/svg">
<path d="M8.81452 2.29579L9.98772 4.66159C10.1477 4.99092 10.5743 5.30681 10.9343 5.3673L13.0607 5.72351C14.4206 5.95203 14.7405 6.94674 13.7606 7.928L12.1075 9.59482C11.8275 9.8771 11.6742 10.4215 11.7609 10.8113L12.2341 12.8747C12.6074 14.5079 11.7475 15.1397 10.3144 14.2861L8.32124 13.0965C7.96128 12.8814 7.36801 12.8814 7.00139 13.0965L5.00827 14.2861C3.58176 15.1397 2.71519 14.5012 3.08848 12.8747L3.56177 10.8113C3.64842 10.4215 3.49511 9.8771 3.21514 9.59482L1.56199 7.928C0.58876 6.94674 0.902059 5.95203 2.26191 5.72351L4.38834 5.3673C4.74164 5.30681 5.16825 4.99092 5.32824 4.66159L6.50144 2.29579C7.14137 1.01208 8.18125 1.01208 8.81452 2.29579Z" fill="#E7ECEE" stroke="#CFD0D4" stroke-linecap="round" stroke-linejoin="round"/>
</svg>
