<svg width="16" height="16" viewBox="0 0 16 16" fill="none" xmlns="http://www.w3.org/2000/svg">
<path d="M9.1485 2.29579L10.3217 4.66159C10.4817 4.99092 10.9083 5.30681 11.2683 5.3673L13.3947 5.72351C14.7545 5.95203 15.0745 6.94674 14.0946 7.928L12.4415 9.59482C12.1615 9.8771 12.0082 10.4215 12.0948 10.8113L12.5681 12.8747C12.9414 14.5079 12.0815 15.1397 10.6483 14.2861L8.65522 13.0965C8.29526 12.8814 7.702 12.8814 7.33537 13.0965L5.34226 14.2861C3.91575 15.1397 3.04918 14.5012 3.42247 12.8747L3.89575 10.8113C3.98241 10.4215 3.82909 9.8771 3.54912 9.59482L1.89597 7.928C0.922745 6.94674 1.23604 5.95203 2.59589 5.72351L4.72233 5.3673C5.07562 5.30681 5.50224 4.99092 5.66222 4.66159L6.83543 2.29579C7.47535 1.01208 8.51524 1.01208 9.1485 2.29579Z" fill="#F6CF50" stroke="#F2BB05" stroke-linecap="round" stroke-linejoin="round"/>
</svg>
